M48
; DRILL file {KiCad 9.0.6} date 2025-12-15T23:37:27+0000
; FORMAT={-:-/ absolute / metric / decimal}
; #@! TF.CreationDate,2025-12-15T23:37:27+00:00
; #@! TF.GenerationSoftware,Kicad,Pcbnew,9.0.6
; #@! TF.FileFunction,Plated,1,2,PTH
FMAT,2
METRIC
; #@! TA.AperFunction,Plated,PTH,ViaDrill
T1C0.300
; #@! TA.AperFunction,Plated,PTH,ComponentDrill
T2C0.889
; #@! TA.AperFunction,Plated,PTH,ComponentDrill
T3C1.000
; #@! TA.AperFunction,Plated,PTH,ComponentDrill
T4C1.500
; #@! TA.AperFunction,Plated,PTH,ComponentDrill
T5C2.600
%
G90
G05
T1
X140.2Y-28.0
X141.8Y-37.4
X143.0Y-42.4
X143.8Y-43.1
X146.856Y-27.944
X147.1Y-43.1
X147.6Y-33.969
X147.794Y-26.194
T2
X116.205Y-25.717
X116.205Y-28.258
X116.205Y-30.797
X116.205Y-33.337
X116.205Y-35.877
X116.205Y-38.417
X116.205Y-40.957
X131.445Y-25.717
X131.445Y-28.258
X131.445Y-30.797
X131.445Y-33.337
X131.445Y-35.877
X131.445Y-38.417
X131.445Y-40.957
T3
X173.725Y-35.6
X173.725Y-38.1
X173.725Y-40.6
X188.225Y-35.6
X188.225Y-40.6
T4
X120.015Y-54.61
X126.365Y-52.07
X139.065Y-54.61
X145.415Y-52.07
X158.115Y-35.56
X158.115Y-54.61
X164.465Y-33.02
X164.465Y-52.07
X177.165Y-54.61
X183.515Y-52.07
T5
X181.225Y-32.5
X181.225Y-43.7
M30
