%TF.GenerationSoftware,KiCad,Pcbnew,9.0.6*%
%TF.CreationDate,2025-12-15T23:37:31+00:00*%
%TF.ProjectId,Macropad,4d616372-6f70-4616-942e-6b696361645f,rev?*%
%TF.SameCoordinates,Original*%
%TF.FileFunction,Soldermask,Top*%
%TF.FilePolarity,Negative*%
%FSLAX46Y46*%
G04 Gerber Fmt 4.6, Leading zero omitted, Abs format (unit mm)*
G04 Created by KiCad (PCBNEW 9.0.6) date 2025-12-15 23:37:31*
%MOMM*%
%LPD*%
G01*
G04 APERTURE LIST*
G04 Aperture macros list*
%AMRoundRect*
0 Rectangle with rounded corners*
0 $1 Rounding radius*
0 $2 $3 $4 $5 $6 $7 $8 $9 X,Y pos of 4 corners*
0 Add a 4 corners polygon primitive as box body*
4,1,4,$2,$3,$4,$5,$6,$7,$8,$9,$2,$3,0*
0 Add four circle primitives for the rounded corners*
1,1,$1+$1,$2,$3*
1,1,$1+$1,$4,$5*
1,1,$1+$1,$6,$7*
1,1,$1+$1,$8,$9*
0 Add four rect primitives between the rounded corners*
20,1,$1+$1,$2,$3,$4,$5,0*
20,1,$1+$1,$4,$5,$6,$7,0*
20,1,$1+$1,$6,$7,$8,$9,0*
20,1,$1+$1,$8,$9,$2,$3,0*%
G04 Aperture macros list end*
%ADD10R,2.000000X2.000000*%
%ADD11C,2.000000*%
%ADD12C,3.200000*%
%ADD13R,1.600000X0.850000*%
%ADD14C,1.700000*%
%ADD15C,4.000000*%
%ADD16C,2.200000*%
%ADD17RoundRect,0.152400X1.063600X0.609600X-1.063600X0.609600X-1.063600X-0.609600X1.063600X-0.609600X0*%
%ADD18C,1.524000*%
%ADD19RoundRect,0.152400X-1.063600X-0.609600X1.063600X-0.609600X1.063600X0.609600X-1.063600X0.609600X0*%
G04 APERTURE END LIST*
D10*
%TO.C,SW6*%
X173725000Y-35600000D03*
D11*
X173725000Y-40600000D03*
X173725000Y-38100000D03*
D12*
X181225000Y-32500000D03*
X181225000Y-43700000D03*
D11*
X188225000Y-40600000D03*
X188225000Y-35600000D03*
%TD*%
D13*
%TO.C,D1*%
X141756250Y-26193750D03*
X141756250Y-27943750D03*
X145256250Y-27943750D03*
X145256250Y-26193750D03*
%TD*%
D14*
%TO.C,SW1*%
X118745000Y-57150000D03*
D15*
X123825000Y-57150000D03*
D14*
X128905000Y-57150000D03*
D16*
X126365000Y-52070000D03*
X120015000Y-54610000D03*
%TD*%
D14*
%TO.C,SW2*%
X137795000Y-57150000D03*
D15*
X142875000Y-57150000D03*
D14*
X147955000Y-57150000D03*
D16*
X145415000Y-52070000D03*
X139065000Y-54610000D03*
%TD*%
D14*
%TO.C,SW5*%
X175895000Y-57150000D03*
D15*
X180975000Y-57150000D03*
D14*
X186055000Y-57150000D03*
D16*
X183515000Y-52070000D03*
X177165000Y-54610000D03*
%TD*%
D14*
%TO.C,SW4*%
X156845000Y-38100000D03*
D15*
X161925000Y-38100000D03*
D14*
X167005000Y-38100000D03*
D16*
X164465000Y-33020000D03*
X158115000Y-35560000D03*
%TD*%
D14*
%TO.C,SW3*%
X156845000Y-57150000D03*
D15*
X161925000Y-57150000D03*
D14*
X167005000Y-57150000D03*
D16*
X164465000Y-52070000D03*
X158115000Y-54610000D03*
%TD*%
D17*
%TO.C,U1*%
X115370000Y-25717500D03*
D18*
X116205000Y-25717500D03*
D17*
X115370000Y-28257500D03*
D18*
X116205000Y-28257500D03*
D17*
X115370000Y-30797500D03*
D18*
X116205000Y-30797500D03*
D17*
X115370000Y-33337500D03*
D18*
X116205000Y-33337500D03*
D17*
X115370000Y-35877500D03*
D18*
X116205000Y-35877500D03*
D17*
X115370000Y-38417500D03*
D18*
X116205000Y-38417500D03*
D17*
X115370000Y-40957500D03*
D18*
X116205000Y-40957500D03*
X131445000Y-40957500D03*
D19*
X132280000Y-40957500D03*
D18*
X131445000Y-38417500D03*
D19*
X132280000Y-38417500D03*
D18*
X131445000Y-35877500D03*
D19*
X132280000Y-35877500D03*
D18*
X131445000Y-33337500D03*
D19*
X132280000Y-33337500D03*
D18*
X131445000Y-30797500D03*
D19*
X132280000Y-30797500D03*
D18*
X131445000Y-28257500D03*
D19*
X132280000Y-28257500D03*
D18*
X131445000Y-25717500D03*
D19*
X132280000Y-25717500D03*
%TD*%
D13*
%TO.C,D2*%
X141756250Y-33968750D03*
X141756250Y-35718750D03*
X145256250Y-35718750D03*
X145256250Y-33968750D03*
%TD*%
M02*
