%TF.GenerationSoftware,KiCad,Pcbnew,9.0.6*%
%TF.CreationDate,2025-12-15T23:37:31+00:00*%
%TF.ProjectId,Macropad,4d616372-6f70-4616-942e-6b696361645f,rev?*%
%TF.SameCoordinates,Original*%
%TF.FileFunction,Legend,Top*%
%TF.FilePolarity,Positive*%
%FSLAX46Y46*%
G04 Gerber Fmt 4.6, Leading zero omitted, Abs format (unit mm)*
G04 Created by KiCad (PCBNEW 9.0.6) date 2025-12-15 23:37:31*
%MOMM*%
%LPD*%
G01*
G04 APERTURE LIST*
%ADD10C,0.080000*%
%ADD11C,0.100000*%
%ADD12C,0.150000*%
%ADD13C,0.120000*%
%ADD14C,0.127000*%
%ADD15C,0.504000*%
G04 APERTURE END LIST*
D10*
X178090726Y-29149649D02*
X178424059Y-29149649D01*
X178566916Y-29673459D02*
X178090726Y-29673459D01*
X178090726Y-29673459D02*
X178090726Y-28673459D01*
X178090726Y-28673459D02*
X178566916Y-28673459D01*
X178995488Y-29673459D02*
X178995488Y-28673459D01*
X178995488Y-28673459D02*
X179566916Y-29673459D01*
X179566916Y-29673459D02*
X179566916Y-28673459D01*
X180614535Y-29578220D02*
X180566916Y-29625840D01*
X180566916Y-29625840D02*
X180424059Y-29673459D01*
X180424059Y-29673459D02*
X180328821Y-29673459D01*
X180328821Y-29673459D02*
X180185964Y-29625840D01*
X180185964Y-29625840D02*
X180090726Y-29530601D01*
X180090726Y-29530601D02*
X180043107Y-29435363D01*
X180043107Y-29435363D02*
X179995488Y-29244887D01*
X179995488Y-29244887D02*
X179995488Y-29102030D01*
X179995488Y-29102030D02*
X180043107Y-28911554D01*
X180043107Y-28911554D02*
X180090726Y-28816316D01*
X180090726Y-28816316D02*
X180185964Y-28721078D01*
X180185964Y-28721078D02*
X180328821Y-28673459D01*
X180328821Y-28673459D02*
X180424059Y-28673459D01*
X180424059Y-28673459D02*
X180566916Y-28721078D01*
X180566916Y-28721078D02*
X180614535Y-28768697D01*
X181233583Y-28673459D02*
X181424059Y-28673459D01*
X181424059Y-28673459D02*
X181519297Y-28721078D01*
X181519297Y-28721078D02*
X181614535Y-28816316D01*
X181614535Y-28816316D02*
X181662154Y-29006792D01*
X181662154Y-29006792D02*
X181662154Y-29340125D01*
X181662154Y-29340125D02*
X181614535Y-29530601D01*
X181614535Y-29530601D02*
X181519297Y-29625840D01*
X181519297Y-29625840D02*
X181424059Y-29673459D01*
X181424059Y-29673459D02*
X181233583Y-29673459D01*
X181233583Y-29673459D02*
X181138345Y-29625840D01*
X181138345Y-29625840D02*
X181043107Y-29530601D01*
X181043107Y-29530601D02*
X180995488Y-29340125D01*
X180995488Y-29340125D02*
X180995488Y-29006792D01*
X180995488Y-29006792D02*
X181043107Y-28816316D01*
X181043107Y-28816316D02*
X181138345Y-28721078D01*
X181138345Y-28721078D02*
X181233583Y-28673459D01*
X182090726Y-29673459D02*
X182090726Y-28673459D01*
X182090726Y-28673459D02*
X182328821Y-28673459D01*
X182328821Y-28673459D02*
X182471678Y-28721078D01*
X182471678Y-28721078D02*
X182566916Y-28816316D01*
X182566916Y-28816316D02*
X182614535Y-28911554D01*
X182614535Y-28911554D02*
X182662154Y-29102030D01*
X182662154Y-29102030D02*
X182662154Y-29244887D01*
X182662154Y-29244887D02*
X182614535Y-29435363D01*
X182614535Y-29435363D02*
X182566916Y-29530601D01*
X182566916Y-29530601D02*
X182471678Y-29625840D01*
X182471678Y-29625840D02*
X182328821Y-29673459D01*
X182328821Y-29673459D02*
X182090726Y-29673459D01*
X183090726Y-29149649D02*
X183424059Y-29149649D01*
X183566916Y-29673459D02*
X183090726Y-29673459D01*
X183090726Y-29673459D02*
X183090726Y-28673459D01*
X183090726Y-28673459D02*
X183566916Y-28673459D01*
X184566916Y-29673459D02*
X184233583Y-29197268D01*
X183995488Y-29673459D02*
X183995488Y-28673459D01*
X183995488Y-28673459D02*
X184376440Y-28673459D01*
X184376440Y-28673459D02*
X184471678Y-28721078D01*
X184471678Y-28721078D02*
X184519297Y-28768697D01*
X184519297Y-28768697D02*
X184566916Y-28863935D01*
X184566916Y-28863935D02*
X184566916Y-29006792D01*
X184566916Y-29006792D02*
X184519297Y-29102030D01*
X184519297Y-29102030D02*
X184471678Y-29149649D01*
X184471678Y-29149649D02*
X184376440Y-29197268D01*
X184376440Y-29197268D02*
X183995488Y-29197268D01*
D11*
X119308646Y-35872419D02*
X119975312Y-36872419D01*
X119975312Y-35872419D02*
X119308646Y-36872419D01*
X120356265Y-36872419D02*
X120356265Y-35872419D01*
X120784836Y-36586704D02*
X121261026Y-36586704D01*
X120689598Y-36872419D02*
X121022931Y-35872419D01*
X121022931Y-35872419D02*
X121356264Y-36872419D01*
X121880074Y-35872419D02*
X122070550Y-35872419D01*
X122070550Y-35872419D02*
X122165788Y-35920038D01*
X122165788Y-35920038D02*
X122261026Y-36015276D01*
X122261026Y-36015276D02*
X122308645Y-36205752D01*
X122308645Y-36205752D02*
X122308645Y-36539085D01*
X122308645Y-36539085D02*
X122261026Y-36729561D01*
X122261026Y-36729561D02*
X122165788Y-36824800D01*
X122165788Y-36824800D02*
X122070550Y-36872419D01*
X122070550Y-36872419D02*
X121880074Y-36872419D01*
X121880074Y-36872419D02*
X121784836Y-36824800D01*
X121784836Y-36824800D02*
X121689598Y-36729561D01*
X121689598Y-36729561D02*
X121641979Y-36539085D01*
X121641979Y-36539085D02*
X121641979Y-36205752D01*
X121641979Y-36205752D02*
X121689598Y-36015276D01*
X121689598Y-36015276D02*
X121784836Y-35920038D01*
X121784836Y-35920038D02*
X121880074Y-35872419D01*
X123499122Y-36872419D02*
X123499122Y-35872419D01*
X123499122Y-36348609D02*
X124070550Y-36348609D01*
X124070550Y-36872419D02*
X124070550Y-35872419D01*
X124546741Y-36348609D02*
X124880074Y-36348609D01*
X125022931Y-36872419D02*
X124546741Y-36872419D01*
X124546741Y-36872419D02*
X124546741Y-35872419D01*
X124546741Y-35872419D02*
X125022931Y-35872419D01*
X126022931Y-36872419D02*
X125689598Y-36396228D01*
X125451503Y-36872419D02*
X125451503Y-35872419D01*
X125451503Y-35872419D02*
X125832455Y-35872419D01*
X125832455Y-35872419D02*
X125927693Y-35920038D01*
X125927693Y-35920038D02*
X125975312Y-35967657D01*
X125975312Y-35967657D02*
X126022931Y-36062895D01*
X126022931Y-36062895D02*
X126022931Y-36205752D01*
X126022931Y-36205752D02*
X125975312Y-36300990D01*
X125975312Y-36300990D02*
X125927693Y-36348609D01*
X125927693Y-36348609D02*
X125832455Y-36396228D01*
X125832455Y-36396228D02*
X125451503Y-36396228D01*
X126451503Y-36348609D02*
X126784836Y-36348609D01*
X126927693Y-36872419D02*
X126451503Y-36872419D01*
X126451503Y-36872419D02*
X126451503Y-35872419D01*
X126451503Y-35872419D02*
X126927693Y-35872419D01*
D12*
X175191667Y-31307200D02*
X175334524Y-31354819D01*
X175334524Y-31354819D02*
X175572619Y-31354819D01*
X175572619Y-31354819D02*
X175667857Y-31307200D01*
X175667857Y-31307200D02*
X175715476Y-31259580D01*
X175715476Y-31259580D02*
X175763095Y-31164342D01*
X175763095Y-31164342D02*
X175763095Y-31069104D01*
X175763095Y-31069104D02*
X175715476Y-30973866D01*
X175715476Y-30973866D02*
X175667857Y-30926247D01*
X175667857Y-30926247D02*
X175572619Y-30878628D01*
X175572619Y-30878628D02*
X175382143Y-30831009D01*
X175382143Y-30831009D02*
X175286905Y-30783390D01*
X175286905Y-30783390D02*
X175239286Y-30735771D01*
X175239286Y-30735771D02*
X175191667Y-30640533D01*
X175191667Y-30640533D02*
X175191667Y-30545295D01*
X175191667Y-30545295D02*
X175239286Y-30450057D01*
X175239286Y-30450057D02*
X175286905Y-30402438D01*
X175286905Y-30402438D02*
X175382143Y-30354819D01*
X175382143Y-30354819D02*
X175620238Y-30354819D01*
X175620238Y-30354819D02*
X175763095Y-30402438D01*
X176096429Y-30354819D02*
X176334524Y-31354819D01*
X176334524Y-31354819D02*
X176525000Y-30640533D01*
X176525000Y-30640533D02*
X176715476Y-31354819D01*
X176715476Y-31354819D02*
X176953572Y-30354819D01*
X177763095Y-30354819D02*
X177572619Y-30354819D01*
X177572619Y-30354819D02*
X177477381Y-30402438D01*
X177477381Y-30402438D02*
X177429762Y-30450057D01*
X177429762Y-30450057D02*
X177334524Y-30592914D01*
X177334524Y-30592914D02*
X177286905Y-30783390D01*
X177286905Y-30783390D02*
X177286905Y-31164342D01*
X177286905Y-31164342D02*
X177334524Y-31259580D01*
X177334524Y-31259580D02*
X177382143Y-31307200D01*
X177382143Y-31307200D02*
X177477381Y-31354819D01*
X177477381Y-31354819D02*
X177667857Y-31354819D01*
X177667857Y-31354819D02*
X177763095Y-31307200D01*
X177763095Y-31307200D02*
X177810714Y-31259580D01*
X177810714Y-31259580D02*
X177858333Y-31164342D01*
X177858333Y-31164342D02*
X177858333Y-30926247D01*
X177858333Y-30926247D02*
X177810714Y-30831009D01*
X177810714Y-30831009D02*
X177763095Y-30783390D01*
X177763095Y-30783390D02*
X177667857Y-30735771D01*
X177667857Y-30735771D02*
X177477381Y-30735771D01*
X177477381Y-30735771D02*
X177382143Y-30783390D01*
X177382143Y-30783390D02*
X177334524Y-30831009D01*
X177334524Y-30831009D02*
X177286905Y-30926247D01*
X142768155Y-24773569D02*
X142768155Y-23773569D01*
X142768155Y-23773569D02*
X143006250Y-23773569D01*
X143006250Y-23773569D02*
X143149107Y-23821188D01*
X143149107Y-23821188D02*
X143244345Y-23916426D01*
X143244345Y-23916426D02*
X143291964Y-24011664D01*
X143291964Y-24011664D02*
X143339583Y-24202140D01*
X143339583Y-24202140D02*
X143339583Y-24344997D01*
X143339583Y-24344997D02*
X143291964Y-24535473D01*
X143291964Y-24535473D02*
X143244345Y-24630711D01*
X143244345Y-24630711D02*
X143149107Y-24725950D01*
X143149107Y-24725950D02*
X143006250Y-24773569D01*
X143006250Y-24773569D02*
X142768155Y-24773569D01*
X144291964Y-24773569D02*
X143720536Y-24773569D01*
X144006250Y-24773569D02*
X144006250Y-23773569D01*
X144006250Y-23773569D02*
X143911012Y-23916426D01*
X143911012Y-23916426D02*
X143815774Y-24011664D01*
X143815774Y-24011664D02*
X143720536Y-24059283D01*
X140534821Y-26556045D02*
X140077678Y-26556045D01*
X140306250Y-26556045D02*
X140306250Y-25756045D01*
X140306250Y-25756045D02*
X140230059Y-25870330D01*
X140230059Y-25870330D02*
X140153869Y-25946521D01*
X140153869Y-25946521D02*
X140077678Y-25984616D01*
X122491667Y-49683200D02*
X122634524Y-49730819D01*
X122634524Y-49730819D02*
X122872619Y-49730819D01*
X122872619Y-49730819D02*
X122967857Y-49683200D01*
X122967857Y-49683200D02*
X123015476Y-49635580D01*
X123015476Y-49635580D02*
X123063095Y-49540342D01*
X123063095Y-49540342D02*
X123063095Y-49445104D01*
X123063095Y-49445104D02*
X123015476Y-49349866D01*
X123015476Y-49349866D02*
X122967857Y-49302247D01*
X122967857Y-49302247D02*
X122872619Y-49254628D01*
X122872619Y-49254628D02*
X122682143Y-49207009D01*
X122682143Y-49207009D02*
X122586905Y-49159390D01*
X122586905Y-49159390D02*
X122539286Y-49111771D01*
X122539286Y-49111771D02*
X122491667Y-49016533D01*
X122491667Y-49016533D02*
X122491667Y-48921295D01*
X122491667Y-48921295D02*
X122539286Y-48826057D01*
X122539286Y-48826057D02*
X122586905Y-48778438D01*
X122586905Y-48778438D02*
X122682143Y-48730819D01*
X122682143Y-48730819D02*
X122920238Y-48730819D01*
X122920238Y-48730819D02*
X123063095Y-48778438D01*
X123396429Y-48730819D02*
X123634524Y-49730819D01*
X123634524Y-49730819D02*
X123825000Y-49016533D01*
X123825000Y-49016533D02*
X124015476Y-49730819D01*
X124015476Y-49730819D02*
X124253572Y-48730819D01*
X125158333Y-49730819D02*
X124586905Y-49730819D01*
X124872619Y-49730819D02*
X124872619Y-48730819D01*
X124872619Y-48730819D02*
X124777381Y-48873676D01*
X124777381Y-48873676D02*
X124682143Y-48968914D01*
X124682143Y-48968914D02*
X124586905Y-49016533D01*
X141541667Y-49683200D02*
X141684524Y-49730819D01*
X141684524Y-49730819D02*
X141922619Y-49730819D01*
X141922619Y-49730819D02*
X142017857Y-49683200D01*
X142017857Y-49683200D02*
X142065476Y-49635580D01*
X142065476Y-49635580D02*
X142113095Y-49540342D01*
X142113095Y-49540342D02*
X142113095Y-49445104D01*
X142113095Y-49445104D02*
X142065476Y-49349866D01*
X142065476Y-49349866D02*
X142017857Y-49302247D01*
X142017857Y-49302247D02*
X141922619Y-49254628D01*
X141922619Y-49254628D02*
X141732143Y-49207009D01*
X141732143Y-49207009D02*
X141636905Y-49159390D01*
X141636905Y-49159390D02*
X141589286Y-49111771D01*
X141589286Y-49111771D02*
X141541667Y-49016533D01*
X141541667Y-49016533D02*
X141541667Y-48921295D01*
X141541667Y-48921295D02*
X141589286Y-48826057D01*
X141589286Y-48826057D02*
X141636905Y-48778438D01*
X141636905Y-48778438D02*
X141732143Y-48730819D01*
X141732143Y-48730819D02*
X141970238Y-48730819D01*
X141970238Y-48730819D02*
X142113095Y-48778438D01*
X142446429Y-48730819D02*
X142684524Y-49730819D01*
X142684524Y-49730819D02*
X142875000Y-49016533D01*
X142875000Y-49016533D02*
X143065476Y-49730819D01*
X143065476Y-49730819D02*
X143303572Y-48730819D01*
X143636905Y-48826057D02*
X143684524Y-48778438D01*
X143684524Y-48778438D02*
X143779762Y-48730819D01*
X143779762Y-48730819D02*
X144017857Y-48730819D01*
X144017857Y-48730819D02*
X144113095Y-48778438D01*
X144113095Y-48778438D02*
X144160714Y-48826057D01*
X144160714Y-48826057D02*
X144208333Y-48921295D01*
X144208333Y-48921295D02*
X144208333Y-49016533D01*
X144208333Y-49016533D02*
X144160714Y-49159390D01*
X144160714Y-49159390D02*
X143589286Y-49730819D01*
X143589286Y-49730819D02*
X144208333Y-49730819D01*
X179641667Y-49683200D02*
X179784524Y-49730819D01*
X179784524Y-49730819D02*
X180022619Y-49730819D01*
X180022619Y-49730819D02*
X180117857Y-49683200D01*
X180117857Y-49683200D02*
X180165476Y-49635580D01*
X180165476Y-49635580D02*
X180213095Y-49540342D01*
X180213095Y-49540342D02*
X180213095Y-49445104D01*
X180213095Y-49445104D02*
X180165476Y-49349866D01*
X180165476Y-49349866D02*
X180117857Y-49302247D01*
X180117857Y-49302247D02*
X180022619Y-49254628D01*
X180022619Y-49254628D02*
X179832143Y-49207009D01*
X179832143Y-49207009D02*
X179736905Y-49159390D01*
X179736905Y-49159390D02*
X179689286Y-49111771D01*
X179689286Y-49111771D02*
X179641667Y-49016533D01*
X179641667Y-49016533D02*
X179641667Y-48921295D01*
X179641667Y-48921295D02*
X179689286Y-48826057D01*
X179689286Y-48826057D02*
X179736905Y-48778438D01*
X179736905Y-48778438D02*
X179832143Y-48730819D01*
X179832143Y-48730819D02*
X180070238Y-48730819D01*
X180070238Y-48730819D02*
X180213095Y-48778438D01*
X180546429Y-48730819D02*
X180784524Y-49730819D01*
X180784524Y-49730819D02*
X180975000Y-49016533D01*
X180975000Y-49016533D02*
X181165476Y-49730819D01*
X181165476Y-49730819D02*
X181403572Y-48730819D01*
X182260714Y-48730819D02*
X181784524Y-48730819D01*
X181784524Y-48730819D02*
X181736905Y-49207009D01*
X181736905Y-49207009D02*
X181784524Y-49159390D01*
X181784524Y-49159390D02*
X181879762Y-49111771D01*
X181879762Y-49111771D02*
X182117857Y-49111771D01*
X182117857Y-49111771D02*
X182213095Y-49159390D01*
X182213095Y-49159390D02*
X182260714Y-49207009D01*
X182260714Y-49207009D02*
X182308333Y-49302247D01*
X182308333Y-49302247D02*
X182308333Y-49540342D01*
X182308333Y-49540342D02*
X182260714Y-49635580D01*
X182260714Y-49635580D02*
X182213095Y-49683200D01*
X182213095Y-49683200D02*
X182117857Y-49730819D01*
X182117857Y-49730819D02*
X181879762Y-49730819D01*
X181879762Y-49730819D02*
X181784524Y-49683200D01*
X181784524Y-49683200D02*
X181736905Y-49635580D01*
X160591667Y-30633200D02*
X160734524Y-30680819D01*
X160734524Y-30680819D02*
X160972619Y-30680819D01*
X160972619Y-30680819D02*
X161067857Y-30633200D01*
X161067857Y-30633200D02*
X161115476Y-30585580D01*
X161115476Y-30585580D02*
X161163095Y-30490342D01*
X161163095Y-30490342D02*
X161163095Y-30395104D01*
X161163095Y-30395104D02*
X161115476Y-30299866D01*
X161115476Y-30299866D02*
X161067857Y-30252247D01*
X161067857Y-30252247D02*
X160972619Y-30204628D01*
X160972619Y-30204628D02*
X160782143Y-30157009D01*
X160782143Y-30157009D02*
X160686905Y-30109390D01*
X160686905Y-30109390D02*
X160639286Y-30061771D01*
X160639286Y-30061771D02*
X160591667Y-29966533D01*
X160591667Y-29966533D02*
X160591667Y-29871295D01*
X160591667Y-29871295D02*
X160639286Y-29776057D01*
X160639286Y-29776057D02*
X160686905Y-29728438D01*
X160686905Y-29728438D02*
X160782143Y-29680819D01*
X160782143Y-29680819D02*
X161020238Y-29680819D01*
X161020238Y-29680819D02*
X161163095Y-29728438D01*
X161496429Y-29680819D02*
X161734524Y-30680819D01*
X161734524Y-30680819D02*
X161925000Y-29966533D01*
X161925000Y-29966533D02*
X162115476Y-30680819D01*
X162115476Y-30680819D02*
X162353572Y-29680819D01*
X163163095Y-30014152D02*
X163163095Y-30680819D01*
X162925000Y-29633200D02*
X162686905Y-30347485D01*
X162686905Y-30347485D02*
X163305952Y-30347485D01*
X160591667Y-49683200D02*
X160734524Y-49730819D01*
X160734524Y-49730819D02*
X160972619Y-49730819D01*
X160972619Y-49730819D02*
X161067857Y-49683200D01*
X161067857Y-49683200D02*
X161115476Y-49635580D01*
X161115476Y-49635580D02*
X161163095Y-49540342D01*
X161163095Y-49540342D02*
X161163095Y-49445104D01*
X161163095Y-49445104D02*
X161115476Y-49349866D01*
X161115476Y-49349866D02*
X161067857Y-49302247D01*
X161067857Y-49302247D02*
X160972619Y-49254628D01*
X160972619Y-49254628D02*
X160782143Y-49207009D01*
X160782143Y-49207009D02*
X160686905Y-49159390D01*
X160686905Y-49159390D02*
X160639286Y-49111771D01*
X160639286Y-49111771D02*
X160591667Y-49016533D01*
X160591667Y-49016533D02*
X160591667Y-48921295D01*
X160591667Y-48921295D02*
X160639286Y-48826057D01*
X160639286Y-48826057D02*
X160686905Y-48778438D01*
X160686905Y-48778438D02*
X160782143Y-48730819D01*
X160782143Y-48730819D02*
X161020238Y-48730819D01*
X161020238Y-48730819D02*
X161163095Y-48778438D01*
X161496429Y-48730819D02*
X161734524Y-49730819D01*
X161734524Y-49730819D02*
X161925000Y-49016533D01*
X161925000Y-49016533D02*
X162115476Y-49730819D01*
X162115476Y-49730819D02*
X162353572Y-48730819D01*
X162639286Y-48730819D02*
X163258333Y-48730819D01*
X163258333Y-48730819D02*
X162925000Y-49111771D01*
X162925000Y-49111771D02*
X163067857Y-49111771D01*
X163067857Y-49111771D02*
X163163095Y-49159390D01*
X163163095Y-49159390D02*
X163210714Y-49207009D01*
X163210714Y-49207009D02*
X163258333Y-49302247D01*
X163258333Y-49302247D02*
X163258333Y-49540342D01*
X163258333Y-49540342D02*
X163210714Y-49635580D01*
X163210714Y-49635580D02*
X163163095Y-49683200D01*
X163163095Y-49683200D02*
X163067857Y-49730819D01*
X163067857Y-49730819D02*
X162782143Y-49730819D01*
X162782143Y-49730819D02*
X162686905Y-49683200D01*
X162686905Y-49683200D02*
X162639286Y-49635580D01*
D10*
X119216190Y-25565935D02*
X119216190Y-26213554D01*
X119216190Y-26213554D02*
X119246428Y-26289744D01*
X119246428Y-26289744D02*
X119276666Y-26327840D01*
X119276666Y-26327840D02*
X119337142Y-26365935D01*
X119337142Y-26365935D02*
X119458095Y-26365935D01*
X119458095Y-26365935D02*
X119518571Y-26327840D01*
X119518571Y-26327840D02*
X119548809Y-26289744D01*
X119548809Y-26289744D02*
X119579047Y-26213554D01*
X119579047Y-26213554D02*
X119579047Y-25565935D01*
X120214047Y-26365935D02*
X119851190Y-26365935D01*
X120032618Y-26365935D02*
X120032618Y-25565935D01*
X120032618Y-25565935D02*
X119972142Y-25680220D01*
X119972142Y-25680220D02*
X119911666Y-25756411D01*
X119911666Y-25756411D02*
X119851190Y-25794506D01*
D12*
X142768155Y-32548569D02*
X142768155Y-31548569D01*
X142768155Y-31548569D02*
X143006250Y-31548569D01*
X143006250Y-31548569D02*
X143149107Y-31596188D01*
X143149107Y-31596188D02*
X143244345Y-31691426D01*
X143244345Y-31691426D02*
X143291964Y-31786664D01*
X143291964Y-31786664D02*
X143339583Y-31977140D01*
X143339583Y-31977140D02*
X143339583Y-32119997D01*
X143339583Y-32119997D02*
X143291964Y-32310473D01*
X143291964Y-32310473D02*
X143244345Y-32405711D01*
X143244345Y-32405711D02*
X143149107Y-32500950D01*
X143149107Y-32500950D02*
X143006250Y-32548569D01*
X143006250Y-32548569D02*
X142768155Y-32548569D01*
X143720536Y-31643807D02*
X143768155Y-31596188D01*
X143768155Y-31596188D02*
X143863393Y-31548569D01*
X143863393Y-31548569D02*
X144101488Y-31548569D01*
X144101488Y-31548569D02*
X144196726Y-31596188D01*
X144196726Y-31596188D02*
X144244345Y-31643807D01*
X144244345Y-31643807D02*
X144291964Y-31739045D01*
X144291964Y-31739045D02*
X144291964Y-31834283D01*
X144291964Y-31834283D02*
X144244345Y-31977140D01*
X144244345Y-31977140D02*
X143672917Y-32548569D01*
X143672917Y-32548569D02*
X144291964Y-32548569D01*
X140534821Y-34331045D02*
X140077678Y-34331045D01*
X140306250Y-34331045D02*
X140306250Y-33531045D01*
X140306250Y-33531045D02*
X140230059Y-33645330D01*
X140230059Y-33645330D02*
X140153869Y-33721521D01*
X140153869Y-33721521D02*
X140077678Y-33759616D01*
D13*
%TO.C,SW6*%
X173425000Y-34000000D02*
X174025000Y-34000000D01*
X173725000Y-34300000D02*
X173425000Y-34000000D01*
X174025000Y-34000000D02*
X173725000Y-34300000D01*
X175125000Y-32200000D02*
X175125000Y-44000000D01*
X179225000Y-32200000D02*
X175125000Y-32200000D01*
X179225000Y-44000000D02*
X175125000Y-44000000D01*
X180725000Y-38100000D02*
X181725000Y-38100000D01*
X181225000Y-37600000D02*
X181225000Y-38600000D01*
X183225000Y-32200000D02*
X187325000Y-32200000D01*
X187325000Y-32200000D02*
X187325000Y-34600000D01*
X187325000Y-36800000D02*
X187325000Y-39400000D01*
X187325000Y-41600000D02*
X187325000Y-44000000D01*
X187325000Y-44000000D02*
X183225000Y-44000000D01*
X184225000Y-38100000D02*
G75*
G02*
X178225000Y-38100000I-3000000J0D01*
G01*
X178225000Y-38100000D02*
G75*
G02*
X184225000Y-38100000I3000000J0D01*
G01*
%TO.C,D1*%
X140706250Y-25068750D02*
X140706250Y-29068750D01*
X140706250Y-25068750D02*
X146306250Y-25068750D01*
X140706250Y-29068750D02*
X145706250Y-29068750D01*
X146306250Y-28468750D02*
X145706250Y-29068750D01*
X146306250Y-28468750D02*
X146306250Y-25068750D01*
%TO.C,SW1*%
X116840000Y-50165000D02*
X130810000Y-50165000D01*
X116840000Y-64135000D02*
X116840000Y-50165000D01*
X130810000Y-50165000D02*
X130810000Y-64135000D01*
X130810000Y-64135000D02*
X116840000Y-64135000D01*
%TO.C,SW2*%
X135890000Y-50165000D02*
X149860000Y-50165000D01*
X135890000Y-64135000D02*
X135890000Y-50165000D01*
X149860000Y-50165000D02*
X149860000Y-64135000D01*
X149860000Y-64135000D02*
X135890000Y-64135000D01*
%TO.C,SW5*%
X173990000Y-50165000D02*
X187960000Y-50165000D01*
X173990000Y-64135000D02*
X173990000Y-50165000D01*
X187960000Y-50165000D02*
X187960000Y-64135000D01*
X187960000Y-64135000D02*
X173990000Y-64135000D01*
%TO.C,SW4*%
X154940000Y-31115000D02*
X168910000Y-31115000D01*
X154940000Y-45085000D02*
X154940000Y-31115000D01*
X168910000Y-31115000D02*
X168910000Y-45085000D01*
X168910000Y-45085000D02*
X154940000Y-45085000D01*
%TO.C,SW3*%
X154940000Y-50165000D02*
X168910000Y-50165000D01*
X154940000Y-64135000D02*
X154940000Y-50165000D01*
X168910000Y-50165000D02*
X168910000Y-64135000D01*
X168910000Y-64135000D02*
X154940000Y-64135000D01*
D14*
%TO.C,U1*%
X114935000Y-41846500D02*
X114935000Y-24701500D01*
X116840000Y-43751500D02*
X130810000Y-43751500D01*
X119330000Y-22796500D02*
X119333728Y-21886228D01*
X119833728Y-21386500D02*
X127829000Y-21386500D01*
X128329000Y-21886500D02*
X128329000Y-22796500D01*
D11*
X130810000Y-22796500D02*
X116840000Y-22796500D01*
D14*
X130810000Y-22796500D02*
X116840000Y-22796500D01*
X132715000Y-41846500D02*
X132715000Y-24701500D01*
X114935000Y-24701500D02*
G75*
G02*
X116840000Y-22796500I1905001J-1D01*
G01*
X116840000Y-43751500D02*
G75*
G02*
X114935000Y-41846500I1J1905001D01*
G01*
X119333728Y-21886228D02*
G75*
G02*
X119833728Y-21386501I500018J-291D01*
G01*
X127829000Y-21386500D02*
G75*
G02*
X128329000Y-21886500I0J-500000D01*
G01*
X130810000Y-22796500D02*
G75*
G02*
X132715000Y-24701500I0J-1905000D01*
G01*
X132715000Y-41846500D02*
G75*
G02*
X130810000Y-43751500I-1905000J0D01*
G01*
D15*
X115127000Y-23037500D02*
G75*
G02*
X114623000Y-23037500I-252000J0D01*
G01*
X114623000Y-23037500D02*
G75*
G02*
X115127000Y-23037500I252000J0D01*
G01*
X116270000Y-23917500D02*
G75*
G02*
X115766000Y-23917500I-252000J0D01*
G01*
X115766000Y-23917500D02*
G75*
G02*
X116270000Y-23917500I252000J0D01*
G01*
D13*
%TO.C,D2*%
X140706250Y-32843750D02*
X140706250Y-36843750D01*
X140706250Y-32843750D02*
X146306250Y-32843750D01*
X140706250Y-36843750D02*
X145706250Y-36843750D01*
X146306250Y-36243750D02*
X145706250Y-36843750D01*
X146306250Y-36243750D02*
X146306250Y-32843750D01*
%TD*%
M02*
